<svg width="72" height="72" viewBox="0 0 72 72" fill="none" xmlns="http://www.w3.org/2000/svg">
<g filter="url(#filter0_d)">
<circle cx="36" cy="32" r="32" fill="black"/>
<circle cx="36" cy="32" r="30" fill="black" stroke="#FFCA0D" stroke-width="4" stroke-dasharray="15 15"/>
<circle cx="35.9999" cy="32" r="25.1" fill="white" stroke="black"/>
<g filter="url(#filter1_i)">
<path d="M22.768 36.672C22.768 37.36 22.896 37.84 23.152 38.112C23.408 38.368 23.856 38.496 24.496 38.496V39C22.768 38.936 21.664 38.904 21.184 38.904C20.656 38.904 19.504 38.928 17.728 38.976L17.056 39V38.496C17.808 38.496 18.368 38.352 18.736 38.064C19.12 37.776 19.312 37.264 19.312 36.528V30.672C19.312 29.904 19.24 29.344 19.096 28.992C18.968 28.624 18.744 28.384 18.424 28.272C18.104 28.144 17.616 28.08 16.96 28.08V27.552C18.352 27.52 19.496 27.416 20.392 27.24C21.288 27.048 22.08 26.744 22.768 26.328V36.672ZM33.0595 26.256C34.3235 26.256 35.4515 26.52 36.4435 27.048C37.4355 27.576 38.2035 28.32 38.7475 29.28C39.3075 30.24 39.5875 31.344 39.5875 32.592C39.5875 33.872 39.2995 35.024 38.7235 36.048C38.1635 37.072 37.3635 37.88 36.3235 38.472C35.2995 39.048 34.1235 39.336 32.7955 39.336C31.5475 39.336 30.4275 39.072 29.4355 38.544C28.4435 38.016 27.6675 37.272 27.1075 36.312C26.5475 35.352 26.2675 34.24 26.2675 32.976C26.2675 31.712 26.5475 30.568 27.1075 29.544C27.6835 28.52 28.4835 27.72 29.5075 27.144C30.5315 26.552 31.7155 26.256 33.0595 26.256ZM32.8435 26.688C32.2675 26.688 31.7555 26.936 31.3075 27.432C30.8595 27.928 30.5075 28.648 30.2515 29.592C30.0115 30.52 29.8915 31.624 29.8915 32.904C29.8915 34.936 30.1795 36.448 30.7555 37.44C31.3475 38.416 32.0995 38.904 33.0115 38.904C33.5875 38.904 34.0915 38.656 34.5235 38.16C34.9715 37.648 35.3235 36.928 35.5795 36C35.8355 35.056 35.9635 33.944 35.9635 32.664C35.9635 30.632 35.6675 29.128 35.0755 28.152C34.4995 27.176 33.7555 26.688 32.8435 26.688ZM48.5283 26.256C49.7923 26.256 50.9203 26.52 51.9123 27.048C52.9043 27.576 53.6723 28.32 54.2162 29.28C54.7763 30.24 55.0563 31.344 55.0563 32.592C55.0563 33.872 54.7683 35.024 54.1923 36.048C53.6323 37.072 52.8323 37.88 51.7923 38.472C50.7683 39.048 49.5923 39.336 48.2643 39.336C47.0163 39.336 45.8963 39.072 44.9043 38.544C43.9123 38.016 43.1363 37.272 42.5763 36.312C42.0163 35.352 41.7363 34.24 41.7363 32.976C41.7363 31.712 42.0163 30.568 42.5763 29.544C43.1523 28.52 43.9523 27.72 44.9763 27.144C46.0003 26.552 47.1843 26.256 48.5283 26.256ZM48.3123 26.688C47.7363 26.688 47.2243 26.936 46.7763 27.432C46.3283 27.928 45.9763 28.648 45.7203 29.592C45.4803 30.52 45.3603 31.624 45.3603 32.904C45.3603 34.936 45.6483 36.448 46.2243 37.44C46.8163 38.416 47.5683 38.904 48.4803 38.904C49.0563 38.904 49.5603 38.656 49.9923 38.16C50.4403 37.648 50.7923 36.928 51.0483 36C51.3043 35.056 51.4323 33.944 51.4323 32.664C51.4323 30.632 51.1363 29.128 50.5443 28.152C49.9683 27.176 49.2243 26.688 48.3123 26.688Z" fill="black"/>
</g>
</g>
<defs>
<filter id="filter0_d" x="0" y="0" width="72" height="72" filterUnits="userSpaceOnUse" color-interpolation-filters="sRGB">
<feFlood flood-opacity="0" result="BackgroundImageFix"/>
<feColorMatrix in="SourceAlpha" type="matrix" values="0 0 0 0 0 0 0 0 0 0 0 0 0 0 0 0 0 0 127 0" result="hardAlpha"/>
<feOffset dy="4"/>
<feGaussianBlur stdDeviation="2"/>
<feComposite in2="hardAlpha" operator="out"/>
<feColorMatrix type="matrix" values="0 0 0 0 0 0 0 0 0 0 0 0 0 0 0 0 0 0 0.25 0"/>
<feBlend mode="normal" in2="BackgroundImageFix" result="effect1_dropShadow"/>
<feBlend mode="normal" in="SourceGraphic" in2="effect1_dropShadow" result="shape"/>
</filter>
<filter id="filter1_i" x="16.96" y="26.256" width="38.0962" height="13.33" filterUnits="userSpaceOnUse" color-interpolation-filters="sRGB">
<feFlood flood-opacity="0" result="BackgroundImageFix"/>
<feBlend mode="normal" in="SourceGraphic" in2="BackgroundImageFix" result="shape"/>
<feColorMatrix in="SourceAlpha" type="matrix" values="0 0 0 0 0 0 0 0 0 0 0 0 0 0 0 0 0 0 127 0" result="hardAlpha"/>
<feOffset dy="0.25"/>
<feGaussianBlur stdDeviation="0.5"/>
<feComposite in2="hardAlpha" operator="arithmetic" k2="-1" k3="1"/>
<feColorMatrix type="matrix" values="0 0 0 0 0.6375 0 0 0 0 0.6375 0 0 0 0 0.6375 0 0 0 0.25 0"/>
<feBlend mode="normal" in2="shape" result="effect1_innerShadow"/>
</filter>
</defs>
</svg>
